#N canvas 0 22 880 572 10;
#X declare -lib oscx;
#X obj 503 35 import oscx;
#X obj 90 308 sendOSC;
#X floatatom 89 333 5 0 0 0 - - -;
#X msg 123 281 disconnect;
#X floatatom 133 332 5 0 0 0 - - -;
#X floatatom 32 146 5 0 0 0 - - -;
#X floatatom 131 142 5 0 0 0 - - -;
#X floatatom 241 141 5 0 0 0 - - -;
#X obj 116 69 metro 1000;
#X obj 32 116 random 100;
#X obj 126 107 random 200;
#X msg 31 174 send /latitude \$1;
#X msg 132 174 send /longitude \$1;
#X msg 241 173 send /altitude \$1;
#X obj 271 105 random 300;
#X obj 117 29 bng 15 250 50 0 empty empty empty 17 7 0 10 -262144 -1
-1;
#X msg 119 259 connect localhost 57121;
#X connect 1 0 2 0;
#X connect 1 1 4 0;
#X connect 3 0 1 0;
#X connect 5 0 11 0;
#X connect 6 0 12 0;
#X connect 7 0 13 0;
#X connect 8 0 9 0;
#X connect 8 0 10 0;
#X connect 8 0 14 0;
#X connect 9 0 5 0;
#X connect 10 0 6 0;
#X connect 11 0 1 0;
#X connect 12 0 1 0;
#X connect 13 0 1 0;
#X connect 14 0 7 0;
#X connect 15 0 8 0;
#X connect 16 0 1 0;
