#N canvas 606 80 378 306 10;
#X declare -lib oscx;
#N canvas 120 99 850 458 calibration 0;
#X obj 39 -752 inlet;
#X text 81 -752 Latitude;
#X obj 42 -374 outlet;
#X obj 210 -744 inlet;
#X obj 208 -373 outlet;
#X text 252 -744 Longitude;
#X obj 438 -748 inlet;
#X obj 438 -375 outlet;
#X text 491 -750 Altitude;
#X floatatom 438 -655 5 0 0 0 - - -;
#X floatatom 270 -672 5 0 0 0 - - -;
#X floatatom 85 -667 5 0 0 0 - - -;
#X connect 0 0 2 0;
#X connect 0 0 11 0;
#X connect 3 0 4 0;
#X connect 3 0 10 0;
#X connect 6 0 9 0;
#X connect 9 0 7 0;
#X restore -11 210 pd calibration;
#N canvas -73 298 1338 797 sound 1;
#X obj 44 34 inlet;
#X text 42 12 Latitude;
#X obj 150 35 inlet;
#X obj 1118 27 inlet;
#X text 1116 5 Altitude;
#X floatatom 44 59 5 0 0 0 - - -;
#X floatatom 150 60 5 0 0 0 - - -;
#X floatatom 1118 55 10 0 0 0 - - -;
#X obj 1166 382 bng 15 250 50 0 empty empty empty 17 7 0 10 -262144
-1 -1;
#X obj 1196 382 bng 15 250 50 0 empty empty empty 17 7 0 10 -262144
-1 -1;
#X obj 1226 382 bng 15 250 50 0 empty empty empty 17 7 0 10 -262144
-1 -1;
#X obj 1256 382 bng 15 250 50 0 empty empty empty 17 7 0 10 -262144
-1 -1;
#X msg 1166 434 60;
#X msg 1196 434 62;
#X msg 1226 434 64;
#X msg 1256 434 65;
#X obj 1206 495 + 4;
#X obj 1246 495 + 7;
#X obj 1166 495 + 0;
#X obj 1166 519 mtof;
#X obj 1206 519 mtof;
#X obj 1246 519 mtof;
#X obj 1206 548 osc~;
#X obj 1246 548 osc~;
#X obj 1167 755 output~;
#X msg 1428 433 C;
#X msg 1458 433 D;
#X msg 1489 433 E;
#X msg 1519 433 F;
#X symbolatom 1428 510 10 0 0 0 - - -;
#X obj 1428 461 l2s;
#X obj 1428 484 makefilename %s_Maj;
#X obj 1166 573 +~;
#X obj 1166 605 +~;
#X obj 1166 729 *~;
#X obj 1181 705 r~ cutoff;
#X obj 1118 81 trigger f b;
#X floatatom 1118 157 10 0 0 0 - - -;
#X obj 1181 135 vline~;
#X obj 1181 161 s~ cutoff;
#X msg 1181 110 1 10 \, 0 500 500;
#X msg 1396 433 B;
#X msg 1358 434 A;
#X obj 1136 382 bng 15 250 50 0 empty empty empty 17 7 0 10 -262144
-1 -1;
#X obj 1107 382 bng 15 250 50 0 empty empty empty 17 7 0 10 -262144
-1 -1;
#X msg 1136 434 59;
#X msg 1550 433 G;
#X obj 1287 381 bng 15 250 50 0 empty empty empty 17 7 0 10 -262144
-1 -1;
#X msg 1287 434 67;
#X text 1393 534 Akkoorden A B C D E F G;
#X floatatom 1048 316 5 0 0 0 - - -;
#X obj 1048 343 spigot;
#X floatatom 1095 319 5 0 0 0 - - -;
#X obj 1095 343 spigot;
#X obj 1095 286 &&;
#X floatatom 1141 319 5 0 0 0 - - -;
#X obj 1141 343 spigot;
#X obj 1141 286 &&;
#X floatatom 1186 319 5 0 0 0 - - -;
#X obj 1186 343 spigot;
#X obj 1186 286 &&;
#X floatatom 1230 319 5 0 0 0 - - -;
#X obj 1230 343 spigot;
#X obj 1230 286 &&;
#X floatatom 1275 319 5 0 0 0 - - -;
#X obj 1275 343 spigot;
#X obj 1275 286 &&;
#X floatatom 1321 319 5 0 0 0 - - -;
#X obj 1321 343 spigot;
#X obj 1047 287 < 20;
#X obj 1098 217 > 20;
#X obj 1321 286 > 120;
#X obj 1100 243 < 40;
#X obj 1271 241 < 120;
#X obj 1271 215 > 105;
#X obj 1229 240 < 105;
#X obj 1229 215 > 90;
#X obj 1186 240 < 90;
#X obj 1186 215 > 65;
#X obj 1142 242 < 65;
#X obj 1142 216 > 40;
#X msg 1107 434 57;
#X floatatom 746 171 5 0 0 0 - - -;
#X obj 1118 123 int;
#X obj 1166 548 osc~;
#X floatatom 666 598 5 0 0 0 - - -;
#X obj 666 622 spigot;
#X obj 666 694 mtof;
#X obj 666 648 bng 15 250 50 0 empty empty empty 17 7 0 10 -262144
-1 -1;
#X msg 666 669 74;
#X obj 615 190 == 15;
#X floatatom 609 601 5 0 0 0 - - -;
#X obj 609 625 spigot;
#X obj 609 694 mtof;
#X obj 608 651 bng 15 250 50 0 empty empty empty 17 7 0 10 -262144
-1 -1;
#X msg 609 672 72;
#X obj 615 212 == 22;
#X obj 672 212 == 16;
#X obj 672 236 == 23;
#X floatatom 718 598 5 0 0 0 - - -;
#X obj 718 622 spigot;
#X obj 718 694 mtof;
#X obj 718 648 bng 15 250 50 0 empty empty empty 17 7 0 10 -262144
-1 -1;
#X obj 725 208 == 17;
#X obj 724 232 == 24;
#X msg 718 669 76;
#X floatatom 774 602 5 0 0 0 - - -;
#X obj 774 626 spigot;
#X obj 774 695 mtof;
#X obj 774 652 bng 15 250 50 0 empty empty empty 17 7 0 10 -262144
-1 -1;
#X obj 781 207 == 18;
#X obj 780 231 == 25;
#X msg 774 673 77;
#X floatatom 832 601 5 0 0 0 - - -;
#X obj 832 625 spigot;
#X obj 832 695 mtof;
#X obj 833 207 == 19;
#X obj 833 231 == 26;
#X msg 832 674 79;
#X obj 832 651 bng 15 250 50 0 empty empty empty 17 7 0 10 -262144
-1 -1;
#X floatatom 887 600 5 0 0 0 - - -;
#X obj 887 624 spigot;
#X obj 887 694 mtof;
#X obj 887 650 bng 15 250 50 0 empty empty empty 17 7 0 10 -262144
-1 -1;
#X obj 894 199 == 20;
#X obj 894 224 == 27;
#X floatatom 949 601 5 0 0 0 - - -;
#X obj 949 625 spigot;
#X obj 949 695 mtof;
#X obj 949 651 bng 15 250 50 0 empty empty empty 17 7 0 10 -262144
-1 -1;
#X obj 949 203 == 21;
#X obj 949 228 == 28;
#X msg 887 673 81;
#X msg 949 674 83;
#X obj 615 236 == 29;
#X obj 671 258 == 30;
#X obj 723 254 == 31;
#X obj 779 253 == 32;
#X obj 831 253 == 33;
#X obj 892 245 == 34;
#X obj 947 248 == 35;
#X obj 615 259 == 36;
#X obj 671 281 == 37;
#X obj 723 277 == 38;
#X obj 779 276 == 39;
#X obj 831 276 == 40;
#X obj 892 268 == 41;
#X obj 947 272 == 42;
#X obj 615 284 == 43;
#X obj 671 303 == 44;
#X obj 723 299 == 45;
#X obj 779 298 == 46;
#X obj 831 298 == 47;
#X obj 892 290 == 48;
#X obj 947 294 == 49;
#X obj 615 307 == 50;
#X obj 671 326 == 51;
#X obj 723 322 == 52;
#X obj 779 321 == 53;
#X obj 831 321 == 54;
#X obj 892 313 == 55;
#X obj 947 317 == 56;
#X obj 614 330 == 57;
#X obj 671 348 == 58;
#X obj 723 344 == 59;
#X obj 779 343 == 60;
#X obj 832 343 == 61;
#X obj 892 336 == 62;
#X obj 947 340 == 63;
#X obj 614 355 == 64;
#X obj 671 370 == 65;
#X obj 723 366 == 66;
#X obj 779 365 == 67;
#X obj 831 365 == 68;
#X obj 892 357 == 69;
#X obj 947 361 == 70;
#X obj 947 385 == 77;
#X obj 947 408 == 84;
#X obj 947 431 == 91;
#X obj 947 453 == 98;
#X obj 947 476 == 105;
#X obj 947 499 == 112;
#X obj 947 520 == 119;
#X obj 948 541 == 126;
#X obj 892 380 == 76;
#X obj 892 406 == 83;
#X obj 890 427 == 90;
#X obj 890 450 == 97;
#X obj 890 472 == 104;
#X obj 890 495 == 111;
#X obj 890 518 == 118;
#X obj 890 539 == 125;
#X obj 832 386 == 75;
#X obj 832 410 == 82;
#X obj 830 432 == 89;
#X obj 830 455 == 96;
#X obj 829 477 == 103;
#X obj 830 501 == 110;
#X obj 831 522 == 117;
#X obj 830 544 == 124;
#X obj 778 389 == 74;
#X obj 777 413 == 81;
#X obj 776 435 == 88;
#X obj 776 458 == 95;
#X obj 776 480 == 102;
#X obj 776 503 == 109;
#X obj 776 525 == 116;
#X obj 776 548 == 123;
#X obj 723 389 == 73;
#X obj 724 413 == 80;
#X obj 723 436 == 87;
#X obj 722 458 == 94;
#X obj 722 481 == 101;
#X obj 722 503 == 108;
#X obj 722 526 == 115;
#X obj 722 548 == 122;
#X obj 671 393 == 72;
#X obj 671 416 == 79;
#X obj 671 440 == 86;
#X obj 670 462 == 93;
#X obj 670 486 == 100;
#X obj 670 507 == 107;
#X obj 670 530 == 114;
#X obj 670 552 == 121;
#X obj 612 381 == 71;
#X obj 611 407 == 78;
#X obj 611 432 == 85;
#X obj 611 456 == 92;
#X obj 611 479 == 99;
#X obj 610 504 == 106;
#X obj 611 527 == 113;
#X obj 610 550 == 120;
#X text 148 13 Longitude;
#X text 673 140 Aanspelen van enkele noten (linkerhand);
#X text 1226 182 Aanspelen van akkoorden (rechterhand);
#X obj 382 310 noise~;
#X obj 439 306 line~;
#X obj 424 327 *~;
#X obj 424 379 dac~;
#X obj 424 350 *~ 0;
#X msg 428 278 1 \, 0 50;
#X obj 440 189 bng 15 250 50 0 empty empty empty 0 -6 0 8 -241291 -1
-1;
#X obj 503 519 line~;
#X obj 437 536 *~;
#X obj 437 592 dac~;
#X obj 437 565 *~ 0;
#X obj 437 505 osc~;
#X obj 437 467 line~;
#X msg 437 444 220 \, 50 20;
#X text 398 157 Achtergrond drums;
#X obj 1035 713 osc~;
#X obj 554 309 vsl 15 128 0 10 0 0 empty empty empty 0 -9 0 10 -262144
-1 -1 1600 1;
#X obj 610 575 == 127;
#X obj 669 573 == 128;
#X obj 721 570 == 129;
#X obj 251 262 sel 1 2;
#X floatatom 257 344 5 0 0 0 - - -;
#X msg 250 312 1;
#X msg 283 312 0;
#X obj 283 289 t b b;
#X msg 304 263 0;
#X obj 254 236 +;
#X floatatom 282 238 5 0 0 0 - - -;
#X obj 257 396 timer;
#X obj 254 184 bng 15 250 50 0 empty empty empty 0 -6 0 10 -4034 -1
-1;
#X msg 252 208 1;
#X obj 257 369 sel 1 0;
#X floatatom 257 420 5 0 0 0 - - -;
#X msg 438 486 0;
#X msg 503 490 1 \, 0 50;
#X text 141 156 Detecteerd ritme + geeft door aan drums;
#X obj 257 447 / 4;
#X floatatom 616 740 10 0 0 0 - - -;
#X text 672 41 Als meter van fiets overeen komen met van de mogelijk
gegeven opties \, wordt de MIDI noot van deze hoogte doorgegeven.;
#X text 673 89 De noten zijn Do Re Mi Fa Sol la Si;
#X text 1210 19 Hier worden akkoorden getriggerd;
#X text 1208 38 Akkoorden bestaan uit 3 noten harmonische noten die
op dezelfde moment worden aangespeeld. En zo een harmonische klank
vormen.;
#X text 1276 495 Aanspelen van 3 noten;
#X text 1327 244 if-structuur die kijkt welk akkoord moet aangespeeld
worden.;
#X text 222 483 Ritme gedeeld door 4 geeft moment aan waarop high head
moet triggeren.;
#X connect 0 0 5 0;
#X connect 2 0 6 0;
#X connect 3 0 7 0;
#X connect 7 0 36 0;
#X connect 8 0 12 0;
#X connect 8 0 25 0;
#X connect 9 0 13 0;
#X connect 9 0 26 0;
#X connect 10 0 14 0;
#X connect 10 0 27 0;
#X connect 11 0 15 0;
#X connect 11 0 28 0;
#X connect 12 0 16 0;
#X connect 12 0 17 0;
#X connect 12 0 18 0;
#X connect 13 0 16 0;
#X connect 13 0 17 0;
#X connect 13 0 18 0;
#X connect 14 0 16 0;
#X connect 14 0 17 0;
#X connect 14 0 18 0;
#X connect 15 0 16 0;
#X connect 15 0 17 0;
#X connect 15 0 18 0;
#X connect 16 0 20 0;
#X connect 17 0 21 0;
#X connect 18 0 19 0;
#X connect 19 0 84 0;
#X connect 20 0 22 0;
#X connect 21 0 23 0;
#X connect 22 0 32 1;
#X connect 23 0 33 1;
#X connect 25 0 30 0;
#X connect 26 0 30 0;
#X connect 27 0 30 0;
#X connect 28 0 30 0;
#X connect 30 0 31 0;
#X connect 31 0 29 0;
#X connect 32 0 33 0;
#X connect 33 0 34 0;
#X connect 34 0 24 0;
#X connect 34 0 24 1;
#X connect 35 0 34 1;
#X connect 36 0 83 0;
#X connect 36 1 40 0;
#X connect 37 0 69 0;
#X connect 37 0 70 0;
#X connect 37 0 72 0;
#X connect 37 0 73 0;
#X connect 37 0 74 0;
#X connect 37 0 75 0;
#X connect 37 0 76 0;
#X connect 37 0 77 0;
#X connect 37 0 78 0;
#X connect 37 0 79 0;
#X connect 37 0 80 0;
#X connect 37 0 71 0;
#X connect 37 0 82 0;
#X connect 38 0 39 0;
#X connect 40 0 38 0;
#X connect 41 0 30 0;
#X connect 42 0 30 0;
#X connect 43 0 45 0;
#X connect 43 0 41 0;
#X connect 44 0 81 0;
#X connect 44 0 42 0;
#X connect 45 0 18 0;
#X connect 45 0 16 0;
#X connect 45 0 17 0;
#X connect 46 0 30 0;
#X connect 47 0 48 0;
#X connect 47 0 46 0;
#X connect 48 0 17 0;
#X connect 48 0 16 0;
#X connect 48 0 18 0;
#X connect 50 0 51 1;
#X connect 50 0 51 0;
#X connect 51 0 44 0;
#X connect 52 0 53 1;
#X connect 52 0 53 0;
#X connect 53 0 43 0;
#X connect 54 0 52 0;
#X connect 55 0 56 1;
#X connect 55 0 56 0;
#X connect 56 0 8 0;
#X connect 57 0 55 0;
#X connect 58 0 59 1;
#X connect 58 0 59 0;
#X connect 59 0 9 0;
#X connect 60 0 58 0;
#X connect 61 0 62 1;
#X connect 61 0 62 0;
#X connect 62 0 10 0;
#X connect 63 0 61 0;
#X connect 64 0 65 1;
#X connect 64 0 65 0;
#X connect 65 0 11 0;
#X connect 66 0 64 0;
#X connect 67 0 68 1;
#X connect 67 0 68 0;
#X connect 68 0 47 0;
#X connect 69 0 50 0;
#X connect 70 0 54 0;
#X connect 71 0 67 0;
#X connect 72 0 54 1;
#X connect 73 0 66 1;
#X connect 74 0 66 0;
#X connect 75 0 63 1;
#X connect 76 0 63 0;
#X connect 77 0 60 1;
#X connect 78 0 60 0;
#X connect 79 0 57 1;
#X connect 80 0 57 0;
#X connect 81 0 18 0;
#X connect 81 0 16 0;
#X connect 81 0 17 0;
#X connect 82 0 90 0;
#X connect 82 0 96 0;
#X connect 82 0 97 0;
#X connect 82 0 98 0;
#X connect 82 0 103 0;
#X connect 82 0 104 0;
#X connect 82 0 110 0;
#X connect 82 0 111 0;
#X connect 82 0 116 0;
#X connect 82 0 117 0;
#X connect 82 0 124 0;
#X connect 82 0 125 0;
#X connect 82 0 130 0;
#X connect 82 0 131 0;
#X connect 82 0 134 0;
#X connect 82 0 135 0;
#X connect 82 0 136 0;
#X connect 82 0 137 0;
#X connect 82 0 138 0;
#X connect 82 0 139 0;
#X connect 82 0 140 0;
#X connect 82 0 141 0;
#X connect 82 0 142 0;
#X connect 82 0 143 0;
#X connect 82 0 144 0;
#X connect 82 0 145 0;
#X connect 82 0 146 0;
#X connect 82 0 147 0;
#X connect 82 0 148 0;
#X connect 82 0 149 0;
#X connect 82 0 150 0;
#X connect 82 0 151 0;
#X connect 82 0 152 0;
#X connect 82 0 153 0;
#X connect 82 0 154 0;
#X connect 82 0 155 0;
#X connect 82 0 156 0;
#X connect 82 0 157 0;
#X connect 82 0 158 0;
#X connect 82 0 159 0;
#X connect 82 0 160 0;
#X connect 82 0 161 0;
#X connect 82 0 163 0;
#X connect 82 0 164 0;
#X connect 82 0 165 0;
#X connect 82 0 166 0;
#X connect 82 0 167 0;
#X connect 82 0 168 0;
#X connect 82 0 169 0;
#X connect 82 0 170 0;
#X connect 82 0 171 0;
#X connect 82 0 172 0;
#X connect 82 0 173 0;
#X connect 82 0 174 0;
#X connect 82 0 175 0;
#X connect 82 0 176 0;
#X connect 82 0 177 0;
#X connect 82 0 178 0;
#X connect 82 0 179 0;
#X connect 82 0 180 0;
#X connect 82 0 181 0;
#X connect 82 0 182 0;
#X connect 82 0 183 0;
#X connect 82 0 184 0;
#X connect 82 0 185 0;
#X connect 82 0 186 0;
#X connect 82 0 187 0;
#X connect 82 0 188 0;
#X connect 82 0 189 0;
#X connect 82 0 190 0;
#X connect 82 0 191 0;
#X connect 82 0 192 0;
#X connect 82 0 193 0;
#X connect 82 0 194 0;
#X connect 82 0 195 0;
#X connect 82 0 196 0;
#X connect 82 0 197 0;
#X connect 82 0 198 0;
#X connect 82 0 199 0;
#X connect 82 0 200 0;
#X connect 82 0 201 0;
#X connect 82 0 202 0;
#X connect 82 0 203 0;
#X connect 82 0 204 0;
#X connect 82 0 205 0;
#X connect 82 0 206 0;
#X connect 82 0 207 0;
#X connect 82 0 208 0;
#X connect 82 0 209 0;
#X connect 82 0 210 0;
#X connect 82 0 211 0;
#X connect 82 0 212 0;
#X connect 82 0 213 0;
#X connect 82 0 214 0;
#X connect 82 0 215 0;
#X connect 82 0 216 0;
#X connect 82 0 217 0;
#X connect 82 0 218 0;
#X connect 82 0 219 0;
#X connect 82 0 220 0;
#X connect 82 0 221 0;
#X connect 82 0 222 0;
#X connect 82 0 223 0;
#X connect 82 0 224 0;
#X connect 82 0 225 0;
#X connect 82 0 226 0;
#X connect 82 0 227 0;
#X connect 82 0 228 0;
#X connect 82 0 229 0;
#X connect 82 0 230 0;
#X connect 82 0 231 0;
#X connect 82 0 252 0;
#X connect 82 0 253 0;
#X connect 82 0 254 0;
#X connect 82 0 264 0;
#X connect 82 0 241 0;
#X connect 83 0 37 0;
#X connect 84 0 32 0;
#X connect 85 0 86 1;
#X connect 85 0 86 0;
#X connect 86 0 88 0;
#X connect 87 0 250 0;
#X connect 87 0 272 0;
#X connect 88 0 89 0;
#X connect 89 0 87 0;
#X connect 90 0 91 0;
#X connect 91 0 92 1;
#X connect 91 0 92 0;
#X connect 92 0 94 0;
#X connect 93 0 250 0;
#X connect 93 0 272 0;
#X connect 94 0 95 0;
#X connect 95 0 93 0;
#X connect 96 0 91 0;
#X connect 97 0 85 0;
#X connect 98 0 85 0;
#X connect 99 0 100 1;
#X connect 99 0 100 0;
#X connect 100 0 102 0;
#X connect 101 0 250 0;
#X connect 101 0 272 0;
#X connect 102 0 105 0;
#X connect 103 0 99 0;
#X connect 104 0 99 0;
#X connect 105 0 101 0;
#X connect 106 0 107 1;
#X connect 106 0 107 0;
#X connect 107 0 109 0;
#X connect 108 0 250 0;
#X connect 108 0 272 0;
#X connect 109 0 112 0;
#X connect 110 0 106 0;
#X connect 111 0 106 0;
#X connect 112 0 108 0;
#X connect 113 0 114 1;
#X connect 113 0 114 0;
#X connect 114 0 119 0;
#X connect 115 0 250 0;
#X connect 115 0 272 0;
#X connect 116 0 113 0;
#X connect 117 0 113 0;
#X connect 118 0 115 0;
#X connect 119 0 118 0;
#X connect 120 0 121 1;
#X connect 120 0 121 0;
#X connect 121 0 123 0;
#X connect 122 0 250 0;
#X connect 122 0 272 0;
#X connect 123 0 132 0;
#X connect 124 0 120 0;
#X connect 125 0 120 0;
#X connect 126 0 127 1;
#X connect 126 0 127 0;
#X connect 127 0 129 0;
#X connect 128 0 250 0;
#X connect 128 0 272 0;
#X connect 129 0 133 0;
#X connect 130 0 126 0;
#X connect 131 0 126 0;
#X connect 132 0 122 0;
#X connect 133 0 128 0;
#X connect 134 0 91 0;
#X connect 135 0 85 0;
#X connect 136 0 99 0;
#X connect 137 0 106 0;
#X connect 138 0 113 0;
#X connect 139 0 120 0;
#X connect 140 0 126 0;
#X connect 141 0 91 0;
#X connect 142 0 85 0;
#X connect 143 0 99 0;
#X connect 144 0 106 0;
#X connect 145 0 113 0;
#X connect 146 0 120 0;
#X connect 147 0 126 0;
#X connect 148 0 91 0;
#X connect 149 0 85 0;
#X connect 150 0 99 0;
#X connect 151 0 106 0;
#X connect 152 0 113 0;
#X connect 153 0 120 0;
#X connect 154 0 126 0;
#X connect 155 0 91 0;
#X connect 156 0 85 0;
#X connect 157 0 99 0;
#X connect 158 0 106 0;
#X connect 159 0 113 0;
#X connect 160 0 120 0;
#X connect 161 0 126 0;
#X connect 162 0 91 0;
#X connect 163 0 85 0;
#X connect 164 0 99 0;
#X connect 165 0 106 0;
#X connect 166 0 113 0;
#X connect 167 0 120 0;
#X connect 168 0 126 0;
#X connect 169 0 91 0;
#X connect 170 0 85 0;
#X connect 171 0 99 0;
#X connect 172 0 106 0;
#X connect 173 0 113 0;
#X connect 174 0 120 0;
#X connect 175 0 126 0;
#X connect 176 0 126 0;
#X connect 177 0 126 0;
#X connect 178 0 126 0;
#X connect 179 0 126 0;
#X connect 180 0 126 0;
#X connect 181 0 126 0;
#X connect 182 0 126 0;
#X connect 183 0 126 0;
#X connect 184 0 120 0;
#X connect 185 0 120 0;
#X connect 186 0 120 0;
#X connect 187 0 120 0;
#X connect 188 0 120 0;
#X connect 189 0 120 0;
#X connect 190 0 120 0;
#X connect 191 0 120 0;
#X connect 192 0 113 0;
#X connect 193 0 113 0;
#X connect 194 0 113 0;
#X connect 195 0 113 0;
#X connect 196 0 113 0;
#X connect 197 0 113 0;
#X connect 198 0 113 0;
#X connect 199 0 113 0;
#X connect 200 0 106 0;
#X connect 201 0 106 0;
#X connect 202 0 106 0;
#X connect 203 0 106 0;
#X connect 204 0 106 0;
#X connect 205 0 106 0;
#X connect 206 0 106 0;
#X connect 207 0 106 0;
#X connect 208 0 99 0;
#X connect 209 0 99 0;
#X connect 210 0 99 0;
#X connect 211 0 99 0;
#X connect 212 0 99 0;
#X connect 213 0 99 0;
#X connect 214 0 99 0;
#X connect 215 0 99 0;
#X connect 216 0 85 0;
#X connect 217 0 85 0;
#X connect 218 0 85 0;
#X connect 219 0 85 0;
#X connect 220 0 85 0;
#X connect 221 0 85 0;
#X connect 222 0 85 0;
#X connect 223 0 85 0;
#X connect 224 0 91 0;
#X connect 225 0 91 0;
#X connect 226 0 91 0;
#X connect 227 0 91 0;
#X connect 228 0 91 0;
#X connect 229 0 91 0;
#X connect 230 0 91 0;
#X connect 231 0 91 0;
#X connect 235 0 237 0;
#X connect 236 0 237 1;
#X connect 237 0 239 0;
#X connect 239 0 238 0;
#X connect 239 0 238 1;
#X connect 240 0 236 0;
#X connect 241 0 269 0;
#X connect 241 0 248 0;
#X connect 242 0 243 1;
#X connect 243 0 245 0;
#X connect 245 0 244 0;
#X connect 245 0 244 1;
#X connect 246 0 243 0;
#X connect 247 0 246 0;
#X connect 248 0 247 0;
#X connect 250 0 34 0;
#X connect 251 0 239 1;
#X connect 251 0 245 1;
#X connect 252 0 91 0;
#X connect 253 0 85 0;
#X connect 254 0 99 0;
#X connect 255 0 257 0;
#X connect 255 1 259 0;
#X connect 256 0 266 0;
#X connect 257 0 256 0;
#X connect 258 0 256 0;
#X connect 259 0 258 0;
#X connect 259 1 260 0;
#X connect 260 0 262 0;
#X connect 261 0 262 0;
#X connect 262 0 261 1;
#X connect 262 0 255 0;
#X connect 263 0 267 0;
#X connect 264 0 265 0;
#X connect 265 0 261 0;
#X connect 266 0 263 0;
#X connect 266 1 263 1;
#X connect 267 0 271 0;
#X connect 268 0 246 1;
#X connect 269 0 242 0;
#X connect 271 0 240 0;
#X restore -11 240 pd sound;
#X obj -10 77 import oscx;
#X floatatom -11 178 5 0 0 0 - - -;
#X floatatom 29 178 5 0 0 0 - - -;
#X obj -11 141 OSCroute /latitude /longitude /altitude;
#X floatatom 70 178 5 0 0 0 - - -;
#X obj -12 113 dumpOSC 4000;
#X connect 0 0 1 0;
#X connect 0 1 1 1;
#X connect 0 2 1 2;
#X connect 3 0 0 0;
#X connect 4 0 0 1;
#X connect 5 0 3 0;
#X connect 5 1 4 0;
#X connect 5 2 6 0;
#X connect 6 0 0 2;
#X connect 7 0 5 0;
